<svg width="82" height="49" viewBox="0 0 82 49" fill="none" xmlns="http://www.w3.org/2000/svg">
<path d="M42.5927 7.46338H7.51636C5.5229 7.46338 3.61108 8.20055 2.20149 9.51272C0.791901 10.8249 0 12.6046 0 14.4603V37.7832C0 39.6389 0.791901 41.4186 2.20149 42.7307C3.61108 44.0429 5.5229 44.7801 7.51636 44.7801H42.5927C44.5862 44.7801 46.498 44.0429 47.9076 42.7307C49.3172 41.4186 50.1091 39.6389 50.1091 37.7832V14.4603C50.1091 12.6046 49.3172 10.8249 47.9076 9.51272C46.498 8.20055 44.5862 7.46338 42.5927 7.46338ZM42.5927 12.128L26.3073 22.5533C25.9264 22.758 25.4943 22.8658 25.0545 22.8658C24.6147 22.8658 24.1827 22.758 23.8018 22.5533L7.51636 12.128H42.5927Z" fill="white"/>
</svg>
