<svg width="40" height="41" viewBox="0 0 40 41" fill="none" xmlns="http://www.w3.org/2000/svg">
<path d="M19.675 0.306763C22.3985 0.306763 24.9577 0.831197 27.3525 1.88006C29.7473 2.92893 31.8369 4.35921 33.6213 6.17089C35.4056 7.98257 36.8143 10.0962 37.8474 12.5118C38.8805 14.9273 39.397 17.5177 39.397 20.2829C39.397 23.0481 38.8805 25.6465 37.8474 28.0779C36.8143 30.5094 35.4056 32.631 33.6213 34.4426C31.8369 36.2543 29.7473 37.6846 27.3525 38.7335C24.9577 39.7823 22.3985 40.3068 19.675 40.3068C16.9515 40.3068 14.4002 39.7823 12.021 38.7335C9.64185 37.6846 7.56009 36.2543 5.77572 34.4426C3.99135 32.631 2.58264 30.5094 1.54958 28.0779C0.516528 25.6465 0 23.0481 0 20.2829C0 17.5177 0.516528 14.9273 1.54958 12.5118C2.58264 10.0962 3.99135 7.98257 5.77572 6.17089C7.56009 4.35921 9.64185 2.92893 12.021 1.88006C14.4002 0.831197 16.9515 0.306763 19.675 0.306763ZM27.0942 9.03144H22.9151C22.1011 9.03144 21.3498 9.17446 20.6611 9.46052C19.9724 9.74657 19.3698 10.128 18.8533 10.6047C18.3367 11.0815 17.9376 11.6218 17.6559 12.2257C17.3741 12.8296 17.2332 13.4335 17.2332 14.0374V16.5642H13.5236V21.5225H17.2332V31.5344H22.1637V21.5225H25.8264V16.5642H22.1637V15.277C22.1637 14.8956 22.3124 14.5936 22.6098 14.3711C22.9072 14.1486 23.1655 14.0374 23.3846 14.0374H27.0942V9.03144Z" fill="black"/>
</svg>
