<svg width="40" height="40" viewBox="0 0 40 40" fill="none" xmlns="http://www.w3.org/2000/svg">
<path d="M19.4867 24.4205C18.8905 24.4205 18.3335 24.309 17.8157 24.086C17.298 23.863 16.843 23.5524 16.4507 23.1541C16.0585 22.7559 15.7525 22.2859 15.5329 21.7443C15.3132 21.2027 15.2034 20.6292 15.2034 20.0239C15.2034 19.4186 15.3132 18.853 15.5329 18.3274C15.7525 17.8017 16.0585 17.3397 16.4507 16.9415C16.843 16.5432 17.298 16.2326 17.8157 16.0096C18.3335 15.7865 18.8905 15.675 19.4867 15.675C20.6791 15.675 21.6911 16.0972 22.5226 16.9415C23.3542 17.7857 23.77 18.8132 23.77 20.0239C23.77 20.6292 23.6602 21.2027 23.4405 21.7443C23.2208 22.2859 22.9149 22.7559 22.5226 23.1541C22.1304 23.5524 21.6754 23.863 21.1576 24.086C20.6399 24.309 20.0829 24.4205 19.4867 24.4205ZM26.3588 20.0239C26.3588 19.7372 26.3431 19.4425 26.3117 19.1398C26.2803 18.8371 26.2333 18.5583 26.1705 18.3035H28.1004V27.9092C28.1004 28.1641 28.0219 28.3712 27.865 28.5305C27.7081 28.6898 27.5041 28.7694 27.2531 28.7694H11.7203C11.4692 28.7694 11.2652 28.6898 11.1083 28.5305C10.9515 28.3712 10.873 28.1641 10.873 27.9092V18.3035H12.8028C12.7401 18.5583 12.693 18.8371 12.6616 19.1398C12.6303 19.4425 12.6146 19.7372 12.6146 20.0239C12.6146 20.9797 12.795 21.8877 13.1559 22.7479C13.5167 23.6081 14.0031 24.3568 14.615 24.994C15.2269 25.6312 15.9565 26.133 16.8037 26.4994C17.651 26.8658 18.5453 27.049 19.4867 27.049C20.4281 27.049 21.3224 26.8658 22.1696 26.4994C23.0169 26.133 23.7465 25.6312 24.3584 24.994C24.9703 24.3568 25.4566 23.6081 25.8175 22.7479C26.1784 21.8877 26.3588 20.9797 26.3588 20.0239ZM19.675 0C22.405 0 24.9624 0.525687 27.3472 1.57706C29.7321 2.62843 31.8188 4.05416 33.6075 5.85424C35.3961 7.65432 36.8082 9.76503 37.8437 12.1864C38.8792 14.6077 39.397 17.2043 39.397 19.9761C39.397 22.7479 38.8792 25.3445 37.8437 27.7658C36.8082 30.1872 35.3961 32.3059 33.6075 34.1219C31.8188 35.9379 29.7321 37.3716 27.3472 38.4229C24.9624 39.4743 22.405 40 19.675 40C16.9449 40 14.3875 39.4743 12.0027 38.4229C9.61782 37.3716 7.53893 35.9379 5.76599 34.1219C3.99304 32.3059 2.58881 30.1872 1.55329 27.7658C0.517762 25.3445 0 22.7479 0 19.9761C0 17.2043 0.517762 14.6077 1.55329 12.1864C2.58881 9.76503 3.99304 7.65432 5.76599 5.85424C7.53893 4.05416 9.61782 2.62843 12.0027 1.57706C14.3875 0.525687 16.9449 0 19.675 0ZM30.6892 11.2784C30.6892 10.5456 30.4381 9.92433 29.9361 9.41458C29.434 8.90482 28.8221 8.64994 28.1004 8.64994H10.873C10.1513 8.64994 9.53937 8.90482 9.0373 9.41458C8.53523 9.92433 8.28419 10.5456 8.28419 11.2784V28.7694C8.28419 29.5022 8.53523 30.1235 9.0373 30.6332C9.53937 31.143 10.1513 31.3979 10.873 31.3979H28.1004C28.8221 31.3979 29.434 31.143 29.9361 30.6332C30.4381 30.1235 30.6892 29.5022 30.6892 28.7694V11.2784ZM27.2531 11.2784C27.5041 11.2784 27.7081 11.366 27.865 11.5412C28.0219 11.7164 28.1004 11.9315 28.1004 12.1864V14.8148C28.1004 15.0697 28.0219 15.2768 27.865 15.4361C27.7081 15.5954 27.5041 15.675 27.2531 15.675H24.6643C24.4133 15.675 24.2015 15.5954 24.0289 15.4361C23.8563 15.2768 23.77 15.0697 23.77 14.8148V12.1864C23.77 11.9315 23.8563 11.7164 24.0289 11.5412C24.2015 11.366 24.4133 11.2784 24.6643 11.2784H27.2531Z" fill="black"/>
</svg>
