<svg width="40" height="40" viewBox="0 0 40 40" fill="none" xmlns="http://www.w3.org/2000/svg">
<path d="M19.675 0C22.405 0 24.9624 0.525687 27.3472 1.57706C29.7321 2.62843 31.8188 4.05416 33.6075 5.85424C35.3961 7.65432 36.8082 9.76503 37.8437 12.1864C38.8792 14.6077 39.397 17.2043 39.397 19.9761C39.397 22.7479 38.8792 25.3445 37.8437 27.7658C36.8082 30.1872 35.3961 32.3059 33.6075 34.1219C31.8188 35.9379 29.7321 37.3716 27.3472 38.4229C24.9624 39.4743 22.405 40 19.675 40C16.9449 40 14.3875 39.4743 12.0027 38.4229C9.61782 37.3716 7.53893 35.9379 5.76599 34.1219C3.99304 32.3059 2.58881 30.1872 1.55329 27.7658C0.517762 25.3445 0 22.7479 0 19.9761C0 17.2043 0.517762 14.6077 1.55329 12.1864C2.58881 9.76503 3.99304 7.65432 5.76599 5.85424C7.53893 4.05416 9.61782 2.62843 12.0027 1.57706C14.3875 0.525687 16.9449 0 19.675 0ZM13.556 15.006H8.61368V31.2545H13.556V15.006ZM11.0613 13.7157C11.7516 13.7157 12.34 13.4767 12.8264 12.9988C13.3128 12.5209 13.556 11.9315 13.556 11.2306C13.556 10.5297 13.3128 9.94026 12.8264 9.46237C12.34 8.98447 11.7516 8.74552 11.0613 8.74552C10.3709 8.74552 9.79041 8.98447 9.31972 9.46237C8.84902 9.94026 8.61368 10.5297 8.61368 11.2306C8.61368 11.9315 8.84902 12.5209 9.31972 12.9988C9.79041 13.4767 10.3709 13.7157 11.0613 13.7157ZM30.7833 21.8399C30.7833 20.693 30.4695 19.5699 29.8419 18.4707C29.2143 17.3716 28.3985 16.5352 27.3943 15.9618C26.4843 15.452 25.4253 15.1812 24.2171 15.1493C23.009 15.1175 21.9029 15.3246 20.8988 15.7706V15.006H16.0036V31.2545H20.8988V21.3142L22.9698 20.3106C23.2208 20.1832 23.5582 20.1195 23.9818 20.1195C24.4054 20.1195 24.7428 20.1991 24.9938 20.3584C25.1821 20.454 25.3703 20.6611 25.5586 20.9797C25.7469 21.2983 25.841 21.585 25.841 21.8399V31.2545H30.7833V21.8399Z" fill="black"/>
</svg>
