<svg width="50" height="50" viewBox="0 0 50 50" fill="none" xmlns="http://www.w3.org/2000/svg">
<path d="M27.0833 16.6667C28.741 16.6667 30.3307 17.3252 31.5028 18.4973C32.6749 19.6694 33.3333 21.2591 33.3333 22.9167C33.3333 23.4693 33.5528 23.9992 33.9435 24.3899C34.3342 24.7806 34.8641 25.0001 35.4167 25.0001C35.9692 25.0001 36.4991 24.7806 36.8898 24.3899C37.2805 23.9992 37.5 23.4693 37.5 22.9167C37.5 20.1541 36.4025 17.5045 34.449 15.551C32.4955 13.5975 29.846 12.5001 27.0833 12.5001C26.5308 12.5001 26.0009 12.7196 25.6102 13.1103C25.2195 13.501 25 14.0309 25 14.5834C25 15.1359 25.2195 15.6658 25.6102 16.0565C26.0009 16.4472 26.5308 16.6667 27.0833 16.6667Z" fill="white"/>
<path d="M27.0833 8.33342C30.9511 8.33342 34.6604 9.86987 37.3953 12.6048C40.1302 15.3397 41.6667 19.049 41.6667 22.9167C41.6667 23.4693 41.8862 23.9992 42.2769 24.3899C42.6676 24.7806 43.1975 25.0001 43.75 25.0001C44.3026 25.0001 44.8325 24.7806 45.2232 24.3899C45.6139 23.9992 45.8334 23.4693 45.8334 22.9167C45.8333 17.9439 43.8579 13.1748 40.3416 9.6585C36.8253 6.14219 32.0562 4.16675 27.0833 4.16675C26.5308 4.16675 26.0009 4.38624 25.6102 4.77694C25.2195 5.16764 25 5.69755 25 6.25008C25 6.80262 25.2195 7.33252 25.6102 7.72322C26.0009 8.11392 26.5308 8.33342 27.0833 8.33342Z" fill="white"/>
<path d="M45.3125 33.1459C45.1979 32.8114 45.0001 32.5116 44.7377 32.2747C44.4753 32.0378 44.1569 31.8716 43.8125 31.7917L31.3125 28.9375C30.9732 28.8606 30.62 28.8699 30.2852 28.9645C29.9505 29.0591 29.6447 29.236 29.3958 29.4792C29.1042 29.75 29.0833 29.7709 27.7292 32.3542C23.2358 30.2837 19.6354 26.6685 17.5833 22.1667C20.2292 20.8334 20.25 20.8334 20.5208 20.5209C20.764 20.272 20.9409 19.9662 21.0356 19.6314C21.1302 19.2966 21.1394 18.9435 21.0625 18.6042L18.2083 6.25002C18.1284 5.90564 17.9622 5.58725 17.7253 5.32484C17.4884 5.06242 17.1886 4.86461 16.8542 4.75002C16.3676 4.57625 15.8652 4.45065 15.3542 4.37502C14.8276 4.25293 14.2903 4.18314 13.75 4.16669C11.2083 4.16669 8.77079 5.17636 6.97356 6.97358C5.17634 8.7708 4.16667 11.2084 4.16667 13.75C4.1777 22.2557 7.56143 30.4098 13.5758 36.4242C19.5902 42.4386 27.7444 45.8223 36.25 45.8334C37.5085 45.8334 38.7547 45.5855 39.9174 45.1039C41.0801 44.6223 42.1365 43.9164 43.0264 43.0265C43.9163 42.1366 44.6222 41.0801 45.1039 39.9174C45.5855 38.7547 45.8333 37.5085 45.8333 36.25C45.834 35.7198 45.7922 35.1903 45.7083 34.6667C45.6208 34.1492 45.4883 33.6404 45.3125 33.1459Z" fill="white"/>
</svg>
