<svg width="40" height="40" viewBox="0 0 40 40" fill="none" xmlns="http://www.w3.org/2000/svg">
<path d="M19.9761 0C22.7479 0 25.3445 0.525687 27.7658 1.57706C30.1872 2.62843 32.3059 4.05416 34.1219 5.85424C35.9379 7.65432 37.3716 9.76503 38.4229 12.1864C39.4743 14.6077 40 17.2043 40 19.9761C40 22.7479 39.4743 25.3445 38.4229 27.7658C37.3716 30.1872 35.9379 32.3059 34.1219 34.1219C32.3059 35.9379 30.1872 37.3716 27.7658 38.4229C25.3445 39.4743 22.7479 40 19.9761 40C17.2043 40 14.6077 39.4743 12.1864 38.4229C9.76503 37.3716 7.65432 35.9379 5.85424 34.1219C4.05416 32.3059 2.62843 30.1872 1.57706 27.7658C0.525687 25.3445 0 22.7479 0 19.9761C0 17.2043 0.525687 14.6077 1.57706 12.1864C2.62843 9.76503 4.05416 7.65432 5.85424 5.85424C7.65432 4.05416 9.76503 2.62843 12.1864 1.57706C14.6077 0.525687 17.2043 0 19.9761 0ZM29.9164 15.675C30.8403 14.9741 31.6527 14.1298 32.3536 13.1422C31.9076 13.3333 31.4536 13.4926 30.9916 13.6201C30.5297 13.7475 30.0438 13.8431 29.534 13.9068C30.0438 13.5882 30.4898 13.1979 30.8722 12.736C31.2545 12.274 31.5253 11.7722 31.6846 11.2306C31.2067 11.4855 30.7129 11.7164 30.2031 11.9235C29.6933 12.1306 29.1677 12.282 28.626 12.3775C28.18 11.9315 27.6543 11.5651 27.049 11.2784C26.4436 10.9916 25.7746 10.8483 25.0418 10.8483C24.3728 10.8483 23.7435 10.9757 23.1541 11.2306C22.5647 11.4855 22.055 11.8359 21.6249 12.282C21.1947 12.728 20.8523 13.2457 20.5974 13.8351C20.3425 14.4245 20.2151 15.0538 20.2151 15.7228C20.2151 15.914 20.223 16.1051 20.2389 16.2963C20.2549 16.4875 20.2788 16.6627 20.3106 16.822C18.3035 16.7264 16.4397 16.2326 14.7192 15.3405C12.9988 14.4484 11.5333 13.2537 10.3226 11.7563C9.87654 12.489 9.65352 13.3015 9.65352 14.1935C9.65352 15.0219 9.85265 15.7945 10.2509 16.5114C10.6491 17.2282 11.1669 17.8096 11.8041 18.2557C10.9757 18.192 10.2429 17.9849 9.60573 17.6344V17.6822C9.60573 18.8929 9.98009 19.9363 10.7288 20.8124C11.4775 21.6886 12.4094 22.2382 13.5245 22.4612C13.3015 22.5249 13.0864 22.5727 12.8793 22.6045C12.6722 22.6364 12.4572 22.6523 12.2342 22.6523C12.0749 22.6523 11.9235 22.6444 11.7802 22.6284C11.6368 22.6125 11.4855 22.5886 11.3262 22.5568C11.6448 23.5125 12.2103 24.309 13.0227 24.9462C13.8351 25.5834 14.783 25.902 15.8662 25.902C15.0378 26.5711 14.1059 27.0888 13.0705 27.4552C12.035 27.8216 10.9598 28.0048 9.84468 28.0048C9.62167 28.0048 9.41458 27.9968 9.22342 27.9809C9.03226 27.965 8.8411 27.9411 8.64994 27.9092C9.73317 28.6101 10.904 29.1517 12.1625 29.534C13.4209 29.9164 14.7352 30.1075 16.1051 30.1075C18.3353 30.1075 20.3106 29.6854 22.0311 28.8411C23.7515 27.9968 25.1932 26.9136 26.356 25.5914C27.5189 24.2692 28.403 22.7877 29.0084 21.147C29.6137 19.5062 29.9164 17.8893 29.9164 16.2963V15.675Z" fill="black"/>
</svg>
