<svg width="40" height="40" viewBox="0 0 40 40" fill="none" xmlns="http://www.w3.org/2000/svg">
<path d="M28.4298 24.4205C28.6809 24.4205 28.8535 24.5002 28.9476 24.6595C29.0731 24.7869 29.1359 25.01 29.1359 25.3286V26.141H27.7238V25.3286C27.7238 25.0418 27.7709 24.8188 27.865 24.6595C28.0219 24.5002 28.2102 24.4205 28.4298 24.4205ZM22.9227 24.4205C23.1424 24.4205 23.2993 24.4843 23.3934 24.6117C23.5189 24.7391 23.5817 24.9303 23.5817 25.1852V29.1995C23.5817 29.4544 23.5346 29.6296 23.4405 29.7252C23.3464 29.8526 23.2052 29.9164 23.0169 29.9164C22.8914 29.9164 22.7658 29.8845 22.6403 29.8208C22.4834 29.7571 22.3579 29.6615 22.2638 29.534V24.7073C22.3893 24.5798 22.4991 24.5002 22.5933 24.4683C22.656 24.4365 22.7658 24.4205 22.9227 24.4205ZM19.722 0C22.452 0 25.0095 0.525687 27.3943 1.57706C29.7792 2.62843 31.8581 4.05416 33.631 5.85424C35.4039 7.65432 36.8082 9.76503 37.8437 12.1864C38.8792 14.6077 39.397 17.2043 39.397 19.9761C39.397 22.7479 38.8792 25.3445 37.8437 27.7658C36.8082 30.1872 35.4039 32.3059 33.631 34.1219C31.8581 35.9379 29.7792 37.3716 27.3943 38.4229C25.0095 39.4743 22.452 40 19.722 40C16.992 40 14.4346 39.4743 12.0497 38.4229C9.66489 37.3716 7.57815 35.9379 5.78952 34.1219C4.00089 32.3059 2.58881 30.1872 1.55329 27.7658C0.517762 25.3445 0 22.7479 0 19.9761C0 17.2043 0.517762 14.6077 1.55329 12.1864C2.58881 9.76503 4.00089 7.65432 5.78952 5.85424C7.57815 4.05416 9.66489 2.62843 12.0497 1.57706C14.4346 0.525687 16.992 0 19.722 0ZM14.1679 20.5018H8.61368V22.0311H10.4964V31.0155H12.2851V22.0311H14.1679V20.5018ZM14.2149 15.5317L16.5684 8.74552H14.4973L13.2735 13.3811H13.1323L11.8144 8.74552H9.79041L12.1909 15.7228V20.3106H14.2149V15.5317ZM19.4396 23.2736H17.8393V29.1517C17.7765 29.2473 17.698 29.327 17.6039 29.3907L17.3215 29.5818C17.1332 29.6774 16.992 29.7252 16.8979 29.7252C16.741 29.7252 16.6311 29.6933 16.5684 29.6296C16.5056 29.5659 16.4742 29.4225 16.4742 29.1995V23.2736H14.8739V29.773C14.8739 30.219 14.968 30.5536 15.1563 30.7766C15.3446 31.0315 15.6113 31.1589 15.9565 31.1589C16.2389 31.1589 16.5527 31.0633 16.8979 30.8722C17.1803 30.7447 17.4941 30.5058 17.8393 30.1553V31.0155H19.4396V23.2736ZM19.2984 20.5018C20.1457 20.5018 20.7889 20.2947 21.2282 19.8805C21.6989 19.4982 21.9343 18.9247 21.9343 18.1601V13.7634C21.9343 13.1581 21.6989 12.6324 21.2282 12.1864C20.7889 11.7722 20.177 11.5651 19.3925 11.5651C18.5767 11.5651 17.9334 11.7563 17.4627 12.1386C16.9606 12.5209 16.7096 13.0466 16.7096 13.7157V18.1601C16.7096 18.8929 16.9449 19.4663 17.4156 19.8805C17.8549 20.2947 18.4825 20.5018 19.2984 20.5018ZM25.2291 25.1374C25.2291 24.5002 25.0879 24.0064 24.8055 23.6559C24.5859 23.3373 24.2093 23.178 23.6758 23.178C23.3934 23.178 23.1424 23.2417 22.9227 23.3692C22.6717 23.4648 22.452 23.64 22.2638 23.8949V20.5018H20.6163V31.0155H22.2638V30.4421C22.3579 30.5695 22.4599 30.673 22.5697 30.7527C22.6795 30.8323 22.7972 30.904 22.9227 30.9677C23.1424 31.0633 23.4248 31.1111 23.77 31.1111C24.2407 31.1111 24.6015 30.9677 24.8526 30.681C25.1036 30.3624 25.2291 29.9482 25.2291 29.4385V25.1374ZM24.6643 20.4062C25.0409 20.4062 25.386 20.3266 25.6998 20.1673C26.0136 20.008 26.3588 19.7372 26.7353 19.3548V20.3106H28.524V11.7563H26.7353V18.2557C26.6098 18.415 26.4216 18.5743 26.1705 18.7336C25.9822 18.8292 25.8253 18.8769 25.6998 18.8769C25.4802 18.8769 25.3547 18.8292 25.3233 18.7336C25.2291 18.638 25.1821 18.4946 25.1821 18.3035V11.7563H23.3934V18.9247C23.3934 19.4345 23.5033 19.8009 23.7229 20.0239C23.8798 20.2788 24.1936 20.4062 24.6643 20.4062ZM30.7833 25.3763C30.7833 24.6117 30.5793 24.0382 30.1714 23.6559C29.7949 23.2736 29.23 23.0824 28.4769 23.0824C27.7552 23.0824 27.1747 23.2895 26.7353 23.7037C26.296 24.1497 26.0764 24.7073 26.0764 25.3763V28.8172C26.0764 29.5818 26.2803 30.1712 26.6883 30.5854C27.1276 31.0315 27.6924 31.2545 28.3828 31.2545C29.1673 31.2545 29.7635 31.0474 30.1714 30.6332C30.5793 30.2509 30.7833 29.6456 30.7833 28.8172V28.4349H29.1359V28.7694C29.1359 29.2473 29.0888 29.55 28.9947 29.6774C28.8692 29.8049 28.6809 29.8686 28.4298 29.8686C28.116 29.8686 27.9278 29.7889 27.865 29.6296C27.7709 29.5022 27.7238 29.2155 27.7238 28.7694V27.3357H30.7833V25.3763ZM19.2984 13.0466C19.5181 13.0466 19.722 13.0944 19.9103 13.19C20.0358 13.3174 20.0986 13.4767 20.0986 13.6679V18.3035C20.0986 18.5583 20.0358 18.7336 19.9103 18.8292C19.7848 18.9566 19.5808 19.0203 19.2984 19.0203C19.0474 19.0203 18.8748 18.9566 18.7806 18.8292C18.6237 18.7336 18.5453 18.5583 18.5453 18.3035V13.6679C18.5453 13.5086 18.6237 13.3493 18.7806 13.19C18.9062 13.0944 19.0787 13.0466 19.2984 13.0466Z" fill="black"/>
</svg>
